<svg xmlns="http://www.w3.org/2000/svg" width="32" height="32" fill="none" viewBox="0 0 32 32"><path fill="url(#a)" d="M0 0h32v32H0z"/><mask id="c" width="32" height="32" x="0" y="0" maskUnits="userSpaceOnUse" style="mask-type:alpha"><path fill="url(#b)" d="M0 0h32v32H0z"/></mask><g mask="url(#c)"><path fill="#fff" d="M-10.2 10.5C-9.5 5.8-5 6-2.8 6.8c2.2.7 4 6.3 8.6 7.5 4.6 1.2 5-11.6 8.5-12.3 3.5-.6 1.5 7.9 5.1 8.5 3.7.5 4.4-5.8 8.4-6.5 4-.7 3.4 2.8 9.6 4.1 6.3 1.3 6.9-1.9 10-1.3 3 .6 1.4 6.4-.6 7.5-2 1.1-.5 6.2 1.5 10.7 2 4.4-1.9 4.2-6.2 2.8-4.3-1.4-1 6.1-6.1 8-5.2 1.7-2-5.1-3.6-10.8-1.6-5.8-4 .6-8.6 2.2s-6.7-4.3-8.6-6.7c-2-2.5-7.6 10.2-10.4 8.7-2.9-1.5-1-3.3-4-5.2-3-1.9-8 3.6-12 .5-4.1-3.1 0-8.2 1-14Z"/></g><defs><linearGradient id="a" x1="9.7" x2="32.3" y1="-1" y2="27" gradientUnits="userSpaceOnUse"><stop stop-color="#F55511"/><stop offset="1" stop-color="#F94AE7"/></linearGradient><linearGradient id="b" x1="9.7" x2="32.3" y1="-1" y2="27" gradientUnits="userSpaceOnUse"><stop stop-color="#F55511"/><stop offset="1" stop-color="#F94AE7"/></linearGradient></defs></svg>